<?xml version="1.0" standalone="no"?>
<!DOCTYPE svg PUBLIC "-//W3C//DTD SVG 20010904//EN"
 "http://www.w3.org/TR/2001/REC-SVG-20010904/DTD/svg10.dtd">
<svg version="1.0" xmlns="http://www.w3.org/2000/svg"
 width="512.000000pt" height="512.000000pt" viewBox="0 0 512.000000 512.000000"
 preserveAspectRatio="xMidYMid meet">
<metadata>
Created by Jarne Delarue
</metadata>
<g transform="translate(0.000000,512.000000) scale(0.100000,-0.100000)"
fill="#000000" stroke="none">
<path d="M3497 5109 c-131 -19 -223 -52 -422 -154 -498 -254 -1548 -889 -2290
-1386 -425 -284 -511 -356 -595 -499 -173 -290 -237 -710 -150 -980 149 -461
932 -1428 1488 -1838 111 -82 191 -126 297 -163 471 -163 979 -101 1650 201
228 103 542 259 715 355 451 252 687 458 811 710 100 204 130 385 111 667 -43
626 -250 1860 -388 2316 -125 411 -483 708 -929 772 -82 11 -216 11 -298 -1z
m336 -306 c303 -67 551 -303 651 -621 85 -269 249 -1309 312 -1972 21 -229 15
-480 -15 -593 -32 -123 -83 -210 -181 -307 -155 -155 -371 -287 -985 -601
-450 -230 -649 -317 -815 -356 -159 -37 -594 -33 -760 7 -174 42 -416 184
-631 368 -159 138 -214 200 -498 561 -462 590 -550 717 -591 856 -17 61 -24
277 -11 399 37 365 203 530 1081 1078 681 425 1544 929 1875 1096 217 110 361
131 568 85z"/>
<path d="M1698 2728 l-3 -593 -28 -58 c-39 -79 -87 -110 -177 -115 -43 -3 -89
2 -131 13 -101 27 -99 28 -125 -41 l-23 -62 59 -26 c212 -95 451 -36 544 134
60 111 59 102 63 748 l4 592 -90 0 -90 0 -3 -592z"/>
<path d="M2690 2570 l0 -752 303 5 c273 4 310 6 382 26 258 72 436 254 506
516 18 64 22 110 23 230 0 175 -13 243 -76 373 -73 154 -205 261 -393 318 -89
27 -95 28 -417 32 l-328 4 0 -752z m660 569 c173 -48 286 -158 344 -334 38
-119 39 -336 0 -465 -37 -125 -118 -232 -220 -290 -95 -55 -182 -70 -406 -70
l-198 0 0 590 0 590 203 0 c174 0 213 -3 277 -21z"/>
</g>
</svg>
